<mxfile host="app.diagrams.net" modified="2024-03-02T15:05:55.393Z" agent="Mozilla/5.0 (X11; Linux x86_64) AppleWebKit/537.36 (KHTML, like Gecko) Chrome/122.0.0.0 Safari/537.36" version="24.0.0" etag="ndj2Ex8SMcZcZQSYTHZn" type="github">
  <diagram name="Page-1" id="sLsgfJ0k-ZNxSDXG1uui">
    <mxGraphModel>
      <root>
        <mxCell id="0" />
        <mxCell id="1" parent="0" />
      </root>
    </mxGraphModel>
  </diagram>
</mxfile>
